<svg version="1" xmlns="http://www.w3.org/2000/svg" width="413.333" height="413.333" viewBox="0 0 310.000000 310.000000"><path d="M26.8 42.2c-.2.7-.4 12.3-.3 25.8v24.5l14.2.2c13.9.2 14.2.1 18.6-2.7 6.7-4.2 10.2-11.9 10.3-23 .3-12.4-3.4-20.1-11.3-24-3-1.5-6.4-1.8-17.4-1.9-10.4-.1-13.8.1-14.1 1.1zM52.4 51c4.3 1.6 5.9 5.4 6.2 14.2.3 6.4-.1 8.8-1.6 11.9-2.8 5.4-5 6.6-13 6.8l-7 .2V50h6.4c3.6 0 7.6.4 9 1zM130.9 45.7c0 2.6-.1 14.4-.2 26.1l-.2 21.2h11.3l-.2-8.8c-.2-4.8-.1-9.3.2-10 .3-.8 2.8-1.2 7.7-1.2 9.3 0 10.5 1.2 11 10.7.2 3.7.3 7.4.4 8 .1.9 2.1 1.3 6.6 1.3 6.5 0 6.6 0 5.4-2.3-.7-1.2-1.4-4.7-1.5-7.7-.1-3-.2-6.3-.3-7.3-.1-1-1.4-3.1-2.9-4.7l-2.9-2.8 2.2-1.2c5.2-2.8 6.8-13 3-19s-6.7-6.8-24.2-6.9l-15.3-.2-.1 4.8zm29.1 5.9c1.9 1.9 2.3 7.7.7 9.9-1.3 1.7-2.7 2-10.3 2h-8.8l-.1-6.8v-6.9l8.7.4c4.8.1 9.2.8 9.8 1.4zM80.9 42.7c-.1 1.1-.1 47.5 0 49 .1 1 4.7 1.3 19.5 1.3h19.3l-.1-4.3-.1-4.2-14.1-.3-14.1-.3V71H116.6l-.2-2.8c-.1-1.5-.3-3.5-.3-4.5-.1-1.5-1.4-1.7-12.4-1.7H91.3l-.2-5.5-.1-5.4 13.7-.3 13.8-.3v-8l-18.7-.3c-10.4-.1-18.8.1-18.9.5zM147.9 114c-.6 3.6-.3 7 .5 7.3 1 .3 6.1.2 7.6-.2.8-.2.9-7.1.1-7.2-2.2-.5-8.1-.4-8.2.1zM161.9 113.5c-.4.1-.4 7.5 0 7.6.3.1 2.4.2 4.6.3l4.1.2-.1-4-.1-4-4.2-.1c-2.3-.1-4.2-.1-4.3 0zM38.5 128.4c-11.6 5.4-16.9 18.5-13.4 33.6 1.3 5.8 5 11.2 10.2 14.6 3.7 2.4 5.2 2.8 11.9 2.9 7 0 8-.3 12.2-3.2 4.5-3.2 4.6-3.2 4.7-1 .1 1.2.1 2.5 0 2.9 0 .5 1.7.8 3.9.8h4v-28H50.3l.1 4.2.1 4.3 5.8.3c3.1.2 5.7.8 5.7 1.3 0 2.4-3.6 7-6.6 8.4-4.4 2-9.3 1.9-13.1-.5-4.8-2.9-6.5-6.3-7.1-13.9-.8-12.1 4.2-19.3 13.7-19.7 5.2-.2 9.3 1.7 11.2 5.3 1.1 2.1 1.9 2.4 6.3 2.1 4.5-.3 5.1-.6 4.8-2.3-.6-3.5-5.1-9.1-9.4-11.5-6.1-3.4-16.7-3.7-23.3-.6zM84.9 128.2c0 2.2-.1 42.1 0 46.5l.1 4.3h10.6l-.1-8.8c-.1-4.8.1-9.3.3-10 .3-.8 2.8-1.2 7.7-1.2 9.3 0 10.6 1.2 11 10.7.1 3.7.3 7.4.4 8 .1.9 2.1 1.3 6.6 1.3 6.5 0 6.6 0 5.4-2.2-.7-1.2-1.3-5.6-1.5-9.8-.3-6.7-.6-7.8-3.2-10.1l-2.8-2.5 2.4-1.8c3.3-2.5 5.5-8.2 4.9-12.7-.6-4.6-4.9-10.4-8.6-11.7-1.6-.6-9.6-1.1-18-1.1-11.7-.2-15.1.1-15.2 1.1zm26.8 8.4c4.5 1.2 5.4 10.2 1.2 12.5-1.1.5-5.4.9-9.6.7l-7.7-.3-.1-5.5c-.1-3 .1-6.1.3-6.8.4-1.3 11.7-1.7 15.9-.6zM138.5 146.7c.1 20.8.9 24.6 5.4 28.7 6.6 6 23.6 5.9 30.5-.2 4.3-3.8 5-7.7 5.2-28.5l.2-19.7h-5.4c-4.9 0-5.4.2-5.4 2.2-.1 1.3-.2 10.1-.3 19.6l-.2 17.4-2.8 2.4c-3.8 3.3-9.6 3.3-13.4 0l-2.8-2.4-.1-18.8c-.1-10.4-.3-19.2-.3-19.7-.1-.4-2.5-.7-5.4-.7h-5.4l.2 19.7zM192.3 153v26h4.9c3.1 0 4.8-.4 4.9-1.3 0-.6.1-8.7.1-18 .1-14.6.3-16.5 1.5-14.7 1.3 1.8 4.4 7.2 11.1 19 1.4 2.5 3.4 5.8 4.4 7.5 1 1.6 2.2 4 2.8 5.2.8 2 1.7 2.3 6.5 2.3h5.5v-52h-10l.1 17.1c0 9.4-.1 17.3-.4 17.5-.4.4-14.6-24-18.6-31.9-1.2-2.5-1.8-2.7-7.1-2.7h-5.7v26zM246.6 153.2l.1 25.3h38.8l.2-4.3.3-4.2h-29v-12.9l12.7-.3 12.7-.3-.1-3.3c-.1-1.7-.2-3.7-.2-4.2-.1-.6-5-1-12.6-1H257v-11h13.4c14.4 0 14.3 0 14.2-5.5l-.1-3-19-.3-19-.2.1 25.2zM26.5 238.9V265h11.1v-9.8l-.1-9.7 7.6-.3c9.5-.4 10.8.8 11.3 9.9.2 3.5.4 7.2.5 8.1.1 1.5 1.1 1.8 6.6 1.8 3.6 0 6.5-.4 6.5-.9s-.5-1.1-1.1-1.3c-.7-.2-1.3-3.2-1.4-6.8-.2-3.6-.4-7.3-.4-8.3-.1-1-1.4-3.1-2.9-4.7l-2.9-2.8 2.3-1.3c2.5-1.3 5.4-7.4 5.4-11.3 0-4-2.8-9.3-6.2-11.8-3.1-2.1-4.4-2.3-19.8-2.6l-16.5-.4v26.1zm29.7-15.1c1.6 1.6 1.6 8.8 0 10.4-.9.9-4.3 1.3-9.9 1.3h-8.6l-.1-6.8-.1-6.9 8.7.4c5.3.2 9.2.8 10 1.6zM94.2 215.7C90.4 226 77 264.1 77 264.6c0 .3 2.5.4 5.6.2l5.6-.3 1.6-5 1.7-5 9.6-.3 9.6-.3 1.5 5.3 1.5 5.3 5.8.3c6.8.4 6.7 1.3 1-14.3-2-5.5-3.8-10.5-4-11-.2-.6-.6-1.9-1-3s-2.3-6.7-4.3-12.5l-3.7-10.5-6.1-.3c-5.9-.3-6.2-.2-7.2 2.5zm12.8 28c0 .9-1.9 1.3-6 1.3-3.3 0-6-.3-6-.8 0-.7 4.4-14.1 5.6-17.2.6-1.4 6.3 13.7 6.4 16.7zM134.5 232.2c.2 20.3.5 22.5 3.8 27.2 5.8 8.2 26 8.7 33 .8 3.7-4.1 4.5-8.9 4.6-28.4l.2-18.8H165l-.1 17.2c-.1 18.7-.2 20.1-2 23.4-2.1 4.1-10.3 4.7-14.5 1l-2.8-2.3v-19.7l-.1-19.6h-11.2l.2 19.2zM188.4 239v26h4.8c3.1 0 4.8-.4 4.9-1.3 0-.6.1-9.2.1-19s.4-17.5.9-17c.7.7 1.8 5.5 6.8 28.8l1.7 8h10.8l1.8-7.5c1-4.1 2-9.1 2.4-11 .3-1.9.8-3.8 1-4.1.2-.4.6-2.2.9-4 .4-1.9 1.2-5.9 2-8.9 1.3-5.2 1.3-4.4 1.4 15.2l.1 20.8h10v-52.1l-7.7.3-7.8.3-1.7 7.5c-1 4.1-2 8.4-2.2 9.5-.3 1.1-1.5 6.7-2.7 12.4l-2.3 10.4-1.2-3.9c-.6-2.1-2.6-10.4-4.4-18.4-1.7-8-3.4-15.3-3.7-16.3-.4-1.4-1.7-1.7-8.2-1.7h-7.7v26zm10.3-13.8c-.3.8-.6.5-.6-.6-.1-1.1.2-1.7.5-1.3.3.3.4 1.2.1 1.9z"/></svg>