<?xml version="1.0" standalone="no"?>
<!DOCTYPE svg PUBLIC "-//W3C//DTD SVG 20010904//EN"
 "http://www.w3.org/TR/2001/REC-SVG-20010904/DTD/svg10.dtd">
<svg version="1.0" xmlns="http://www.w3.org/2000/svg"
 width="16.000000pt" height="16.000000pt" viewBox="0 0 16.000000 16.000000"
 preserveAspectRatio="xMidYMid meet">
<metadata>
Created by potrace 1.11, written by Peter Selinger 2001-2013
</metadata>
<g transform="translate(0.000000,16.000000) scale(0.005161,-0.005161)"
fill="#000000" stroke="none">
<path d="M268 2678 c-2 -7 -4 -123 -3 -258 l0 -245 142 -2 c139 -2 142 -1 186
27 67 42 102 119 103 230 3 124 -34 201 -113 240 -30 15 -64 18 -174 19 -104
1 -138 -1 -141 -11z m256 -88 c43 -16 59 -54 62 -142 3 -64 -1 -88 -16 -119
-28 -54 -50 -66 -130 -68 l-70 -2 0 170 0 171 64 0 c36 0 76 -4 90 -10z"/>
<path d="M1309 2643 c0 -26 -1 -144 -2 -261 l-2 -212 57 0 56 0 -2 88 c-2 48
-1 93 2 100 3 8 28 12 77 12 93 0 105 -12 110 -107 2 -37 3 -74 4 -80 1 -9 21
-13 66 -13 65 0 66 0 54 23 -7 12 -14 47 -15 77 -1 30 -2 63 -3 73 -1 10 -14
31 -29 47 l-29 28 22 12 c52 28 68 130 30 190 -38 60 -67 68 -242 69 l-153 2
-1 -48z m291 -59 c19 -19 23 -77 7 -99 -13 -17 -27 -20 -103 -20 l-88 0 -1 68
0 69 87 -4 c48 -1 92 -8 98 -14z"/>
<path d="M809 2673 c-1 -11 -1 -475 0 -490 1 -10 47 -13 195 -13 l193 0 -1 43
-1 42 -141 3 -141 3 0 64 0 65 126 0 127 0 -2 28 c-1 15 -3 35 -3 45 -1 15
-14 17 -124 17 l-124 0 -2 55 -1 54 137 3 138 3 0 40 0 40 -187 3 c-104 1
-188 -1 -189 -5z"/>
<path d="M1479 1960 c-6 -36 -3 -70 5 -73 10 -3 61 -2 76 2 8 2 9 71 1 72 -22
5 -81 4 -82 -1z"/>
<path d="M1619 1965 c-4 -1 -4 -75 0 -76 3 -1 24 -2 46 -3 l41 -2 -1 40 -1 40
-42 1 c-23 1 -42 1 -43 0z"/>
<path d="M385 1816 c-116 -54 -169 -185 -134 -336 13 -58 50 -112 102 -146 37
-24 52 -28 119 -29 70 0 80 3 122 32 45 32 46 32 47 10 1 -12 1 -25 0 -29 0
-5 17 -8 39 -8 l40 0 0 140 0 140 -108 0 -109 0 1 -42 1 -43 58 -3 c31 -2 57
-8 57 -13 0 -24 -36 -70 -66 -84 -44 -20 -93 -19 -131 5 -48 29 -65 63 -71
139 -8 121 42 193 137 197 52 2 93 -17 112 -53 11 -21 19 -24 63 -21 45 3 51
6 48 23 -6 35 -51 91 -94 115 -61 34 -167 37 -233 6z"/>
<path d="M849 1818 c0 -22 -1 -421 0 -465 l1 -43 53 0 53 0 -1 88 c-1 48 1 93
3 100 3 8 28 12 77 12 93 0 106 -12 110 -107 1 -37 3 -74 4 -80 1 -9 21 -13
66 -13 65 0 66 0 54 22 -7 12 -13 56 -15 98 -3 67 -6 78 -32 101 l-28 25 24
18 c33 25 55 82 49 127 -6 46 -49 104 -86 117 -16 6 -96 11 -180 11 -117 2
-151 -1 -152 -11z m268 -84 c45 -12 54 -102 12 -125 -11 -5 -54 -9 -96 -7
l-77 3 -1 55 c-1 30 1 61 3 68 4 13 117 17 159 6z"/>
<path d="M1385 1633 c1 -208 9 -246 54 -287 66 -60 236 -59 305 2 43 38 50 77
52 285 l2 197 -54 0 c-49 0 -54 -2 -54 -22 -1 -13 -2 -101 -3 -196 l-2 -174
-28 -24 c-38 -33 -96 -33 -134 0 l-28 24 -1 188 c-1 104 -3 192 -3 197 -1 4
-25 7 -54 7 l-54 0 2 -197z"/>
<path d="M1923 1570 l0 -260 49 0 c31 0 48 4 49 13 0 6 1 87 1 180 1 146 3
165 15 147 13 -18 44 -72 111 -190 14 -25 34 -58 44 -75 10 -16 22 -40 28 -52
8 -20 17 -23 65 -23 l55 0 0 260 0 260 -50 0 -50 0 1 -171 c0 -94 -1 -173 -4
-175 -4 -4 -146 240 -186 319 -12 25 -18 27 -71 27 l-57 0 0 -260z"/>
<path d="M2466 1568 l1 -253 194 0 194 0 2 43 3 42 -145 0 -145 0 0 65 0 64
127 3 127 3 -1 33 c-1 17 -2 37 -2 42 -1 6 -50 10 -126 10 l-125 0 0 55 0 55
134 0 c144 0 143 0 142 55 l-1 30 -190 3 -190 2 1 -252z"/>
<path d="M265 711 l0 -261 55 0 56 0 0 98 -1 97 76 3 c95 4 108 -8 113 -99 2
-35 4 -72 5 -81 1 -15 11 -18 66 -18 36 0 65 4 65 9 0 5 -5 11 -11 13 -7 2
-13 32 -14 68 -2 36 -4 73 -4 83 -1 10 -14 31 -29 47 l-29 28 23 13 c25 13 54
74 54 113 0 40 -28 93 -62 118 -31 21 -44 23 -198 26 l-165 4 0 -261z m297
151 c16 -16 16 -88 0 -104 -9 -9 -43 -13 -99 -13 l-86 0 -1 68 -1 69 87 -4
c53 -2 92 -8 100 -16z"/>
<path d="M942 943 c-38 -103 -172 -484 -172 -489 0 -3 25 -4 56 -2 l56 3 16
50 17 50 96 3 96 3 15 -53 15 -53 58 -3 c68 -4 67 -13 10 143 -20 55 -38 105
-40 110 -2 6 -6 19 -10 30 -4 11 -23 67 -43 125 l-37 105 -61 3 c-59 3 -62 2
-72 -25z m128 -280 c0 -9 -19 -13 -60 -13 -33 0 -60 3 -60 8 0 7 44 141 56
172 6 14 63 -137 64 -167z"/>
<path d="M1345 778 c2 -203 5 -225 38 -272 58 -82 260 -87 330 -8 37 41 45 89
46 284 l2 188 -56 0 -55 0 -1 -172 c-1 -187 -2 -201 -20 -234 -21 -41 -103
-47 -145 -10 l-28 23 0 197 -1 196 -56 0 -56 0 2 -192z"/>
<path d="M1884 710 l0 -260 48 0 c31 0 48 4 49 13 0 6 1 92 1 190 0 98 4 175
9 170 7 -7 18 -55 68 -288 l17 -80 54 0 54 0 18 75 c10 41 20 91 24 110 3 19
8 38 10 41 2 4 6 22 9 40 4 19 12 59 20 89 13 52 13 44 14 -152 l1 -208 50 0
50 0 0 260 0 261 -77 -3 -78 -3 -17 -75 c-10 -41 -20 -84 -22 -95 -3 -11 -15
-67 -27 -124 l-23 -104 -12 39 c-6 21 -26 104 -44 184 -17 80 -34 153 -37 163
-4 14 -17 17 -82 17 l-77 0 0 -260z m103 138 c-3 -8 -6 -5 -6 6 -1 11 2 17 5
13 3 -3 4 -12 1 -19z"/>
</g>
</svg>
