<svg version="1.1" id="Layer_1" xmlns="http://www.w3.org/2000/svg" xmlns:xlink="http://www.w3.org/1999/xlink" x="0px" y="0px"
	 width="100%" viewBox="0 0 510.076 55.361" enable-background="new 0 0 510.076 55.361"
	 xml:space="preserve">
<g>
	<path fill="#425855" d="M38.52,33.508c0,3.613-0.67,6.73-2.01,9.353c-1.34,2.622-3.109,4.778-5.303,6.468
		c-2.195,1.69-4.672,2.934-7.43,3.729c-2.759,0.797-5.556,1.195-8.392,1.195H0V12.995h14.918c2.914,0,5.788,0.34,8.625,1.02
		c2.835,0.68,5.361,1.807,7.576,3.38c2.214,1.574,4.001,3.682,5.361,6.323C37.839,26.36,38.52,29.624,38.52,33.508z M28.147,33.508
		c0-2.331-0.379-4.263-1.137-5.798c-0.757-1.534-1.768-2.758-3.03-3.671c-1.263-0.913-2.701-1.563-4.312-1.952
		c-1.613-0.388-3.273-0.583-4.982-0.583H9.732v24.126h4.72c1.787,0,3.506-0.204,5.157-0.612c1.651-0.408,3.108-1.078,4.371-2.011
		c1.262-0.932,2.273-2.175,3.03-3.729C27.768,37.724,28.147,35.8,28.147,33.508z"/>
	<path fill="#425855" d="M42.54,54.253V12.995h27.739v8.392H52.155v7.809h17.133v7.984H52.155v8.566h19.172v8.508H42.54z"/>
	<path fill="#425855" d="M99.999,54.253l-8.958-16.375h-3.396v16.375h-9.732V12.995h15.734c1.981,0,3.914,0.204,5.798,0.612
		c1.884,0.408,3.574,1.098,5.07,2.069c1.495,0.971,2.689,2.253,3.584,3.846c0.893,1.593,1.34,3.575,1.34,5.944
		c0,2.797-0.758,5.148-2.273,7.051c-1.515,1.904-3.613,3.263-6.293,4.079l10.781,17.657H99.999z M99.59,25.641
		c0-0.971-0.206-1.757-0.615-2.36c-0.41-0.602-0.937-1.068-1.581-1.398c-0.645-0.33-1.367-0.554-2.167-0.67
		c-0.8-0.117-1.572-0.175-2.312-0.175h-5.329v9.615h4.743c0.82,0,1.659-0.067,2.519-0.204c0.859-0.136,1.639-0.379,2.342-0.729
		c0.703-0.35,1.278-0.854,1.727-1.515C99.366,27.544,99.59,26.689,99.59,25.641z"/>
</g>
<g>
	<path fill="#8CCC4C" d="M153.059,54.312c-2.701,0.66-5.644,0.991-8.829,0.991c-3.303,0-6.343-0.524-9.12-1.573
		c-2.778-1.049-5.167-2.525-7.168-4.429c-2.001-1.903-3.564-4.186-4.691-6.848c-1.127-2.661-1.69-5.624-1.69-8.887
		c0-3.302,0.573-6.293,1.719-8.974c1.145-2.681,2.729-4.962,4.749-6.848c2.02-1.884,4.39-3.331,7.11-4.341
		c2.719-1.01,5.652-1.515,8.799-1.515c3.263,0,6.293,0.496,9.091,1.486c2.797,0.99,5.07,2.322,6.818,3.992l-6.293,7.167
		c-0.972-1.126-2.253-2.048-3.846-2.768c-1.593-0.718-3.4-1.078-5.419-1.078c-1.748,0-3.361,0.321-4.837,0.962
		c-1.477,0.641-2.759,1.535-3.846,2.681c-1.088,1.146-1.933,2.506-2.535,4.079c-0.603,1.573-0.903,3.292-0.903,5.157
		c0,1.904,0.271,3.652,0.816,5.245c0.543,1.594,1.349,2.963,2.418,4.108c1.068,1.146,2.389,2.04,3.962,2.681
		c1.574,0.641,3.37,0.961,5.391,0.961c1.166,0,2.272-0.087,3.321-0.262c1.049-0.175,2.02-0.456,2.914-0.845v-7.518h-7.867v-8.042
		h17.016v21.853C158.118,52.796,155.758,53.651,153.059,54.312z"/>
	<path fill="#8CCC4C" d="M190.383,54.253l-8.958-16.375h-3.396v16.375h-9.732V12.995h15.734c1.981,0,3.914,0.204,5.798,0.612
		c1.884,0.408,3.574,1.098,5.07,2.069c1.495,0.971,2.689,2.253,3.584,3.846c0.893,1.593,1.34,3.575,1.34,5.944
		c0,2.797-0.758,5.148-2.273,7.051c-1.515,1.904-3.613,3.263-6.293,4.079l10.781,17.657H190.383z M189.975,25.641
		c0-0.971-0.206-1.757-0.615-2.36c-0.41-0.602-0.937-1.068-1.581-1.398c-0.645-0.33-1.367-0.554-2.167-0.67
		c-0.8-0.117-1.572-0.175-2.312-0.175h-5.329v9.615h4.743c0.82,0,1.659-0.067,2.519-0.204c0.859-0.136,1.639-0.379,2.342-0.729
		c0.703-0.35,1.278-0.854,1.727-1.515C189.75,27.544,189.975,26.689,189.975,25.641z"/>
	<path fill="#8CCC4C" d="M241.956,38.694c0,2.486-0.418,4.749-1.255,6.789s-2.033,3.788-3.589,5.245
		c-1.557,1.457-3.435,2.593-5.633,3.409c-2.199,0.816-4.641,1.224-7.325,1.224c-2.724,0-5.176-0.408-7.355-1.224
		c-2.179-0.816-4.027-1.952-5.545-3.409c-1.518-1.457-2.685-3.206-3.502-5.245c-0.818-2.04-1.226-4.302-1.226-6.789V12.995h9.907
		v24.883c0,1.127,0.146,2.195,0.439,3.205c0.292,1.011,0.74,1.914,1.345,2.709c0.604,0.797,1.404,1.428,2.398,1.894
		c0.994,0.466,2.193,0.699,3.597,0.699c1.404,0,2.604-0.233,3.598-0.699c0.995-0.466,1.803-1.097,2.428-1.894
		c0.624-0.795,1.072-1.699,1.345-2.709c0.273-1.01,0.41-2.078,0.41-3.205V12.995h9.965V38.694z M222.783,4.72
		c0,1.36-0.476,2.497-1.427,3.409c-0.953,0.914-2.108,1.37-3.468,1.37c-1.36,0-2.505-0.466-3.438-1.398
		c-0.933-0.933-1.398-2.059-1.398-3.38c0-0.621,0.125-1.214,0.378-1.777c0.252-0.563,0.592-1.068,1.02-1.515
		c0.427-0.446,0.941-0.796,1.544-1.049C216.596,0.126,217.228,0,217.888,0c1.36,0,2.515,0.457,3.468,1.369
		C222.307,2.283,222.783,3.4,222.783,4.72z M235.487,4.72c0,1.36-0.479,2.497-1.437,3.409c-0.958,0.914-2.101,1.37-3.429,1.37
		c-1.368,0-2.521-0.466-3.459-1.398c-0.938-0.933-1.407-2.059-1.407-3.38c0-0.621,0.126-1.214,0.381-1.777
		c0.254-0.563,0.596-1.068,1.026-1.515c0.43-0.446,0.938-0.796,1.524-1.049C229.273,0.126,229.917,0,230.622,0
		c1.328,0,2.471,0.457,3.429,1.369C235.008,2.283,235.487,3.4,235.487,4.72z"/>
	<path fill="#8CCC4C" d="M275.93,54.253L259.32,27.272h-0.174l0.232,26.981h-9.673V12.995h11.363l16.551,26.923h0.176l-0.234-26.923
		h9.674v41.258H275.93z"/>
	<path fill="#8CCC4C" d="M295.218,54.253V12.995h27.739v8.392h-18.124v7.809h17.133v7.984h-17.133v8.566h19.173v8.508H295.218z"/>
</g>
<g>
	<path fill="#425855" d="M363.051,54.253l-8.958-16.375h-3.396v16.375h-9.732V12.995h15.734c1.981,0,3.913,0.204,5.798,0.612
		c1.885,0.408,3.574,1.098,5.07,2.069c1.495,0.971,2.689,2.253,3.584,3.846c0.894,1.593,1.34,3.575,1.34,5.944
		c0,2.797-0.757,5.148-2.272,7.051c-1.515,1.904-3.613,3.263-6.294,4.079l10.781,17.657H363.051z M362.644,25.641
		c0-0.971-0.206-1.757-0.616-2.36c-0.409-0.602-0.937-1.068-1.58-1.398c-0.645-0.33-1.367-0.554-2.167-0.67
		c-0.801-0.117-1.572-0.175-2.313-0.175h-5.328v9.615h4.743c0.819,0,1.659-0.067,2.519-0.204c0.858-0.136,1.639-0.379,2.342-0.729
		s1.278-0.854,1.728-1.515C362.418,27.544,362.644,26.689,362.644,25.641z"/>
	<path fill="#425855" d="M407.572,54.253l-3.205-8.1H388.4l-3.03,8.1h-10.839l17.308-41.258h9.673l17.133,41.258H407.572z
		 M396.5,24.009l-5.244,14.161h10.373L396.5,24.009z"/>
	<path fill="#425855" d="M454.104,45.483c-0.836,2.04-2.03,3.788-3.584,5.245c-1.554,1.457-3.429,2.593-5.623,3.409
		c-2.195,0.816-4.633,1.224-7.313,1.224c-2.72,0-5.168-0.408-7.343-1.224c-2.177-0.816-4.021-1.952-5.536-3.409
		c-1.516-1.457-2.681-3.206-3.496-5.245c-0.816-2.04-1.225-4.302-1.225-6.789V12.995h9.907v24.883c0,1.127,0.146,2.195,0.437,3.205
		c0.292,1.011,0.738,1.914,1.341,2.709c0.602,0.797,1.398,1.428,2.39,1.894c0.99,0.466,2.185,0.699,3.583,0.699
		c1.399,0,2.594-0.233,3.584-0.699c0.991-0.466,1.797-1.097,2.419-1.894c0.621-0.795,1.067-1.699,1.34-2.709
		c0.271-1.01,0.408-2.078,0.408-3.205V12.995h9.965v25.699C455.357,41.181,454.939,43.443,454.104,45.483z"/>
	<path fill="#425855" d="M500.286,54.253l0.233-29.196h-0.175l-10.723,29.196h-6.993l-10.431-29.196h-0.175l0.233,29.196h-9.383
		V12.995h14.178l9.395,26.457h0.233l8.985-26.457h14.411v41.258H500.286z"/>
</g>
</svg>
